<svg width="28" height="28" viewBox="0 0 28 28" fill="none" xmlns="http://www.w3.org/2000/svg">
<rect width="28" height="28" rx="14" fill="#F2F2F2"/>
<path fill-rule="evenodd" clip-rule="evenodd" d="M19.9423 8.84089C20.5929 9.01603 21.1058 9.52895 21.2809 10.1795C21.6062 11.368 21.5937 13.845 21.5937 13.845C21.5937 13.845 21.5937 16.3095 21.2809 17.498C21.1058 18.1485 20.5929 18.6614 19.9423 18.8366C18.7539 19.1493 14 19.1493 14 19.1493C14 19.1493 9.25859 19.1493 8.0576 18.8241C7.40707 18.6489 6.89415 18.136 6.71901 17.4855C6.40625 16.3095 6.40625 13.8325 6.40625 13.8325C6.40625 13.8325 6.40625 11.368 6.71901 10.1795C6.89415 9.52895 7.41958 9.00352 8.0576 8.82838C9.24608 8.51562 14 8.51562 14 8.51562C14 8.51562 18.7539 8.51562 19.9423 8.84089ZM16.4395 13.7456L12.4862 16.0225V11.4688L16.4395 13.7456Z" fill="black"/>
</svg>
