<svg width="28" height="28" viewBox="0 0 28 28" fill="none" xmlns="http://www.w3.org/2000/svg">
<rect width="28" height="28" rx="14" fill="#F2F2F2"/>
<path d="M13.9999 7.45454C12.2223 7.45454 11.9992 7.46232 11.3011 7.49409C10.6043 7.526 10.1287 7.63632 9.71249 7.79818C9.282 7.96536 8.91683 8.189 8.55302 8.55295C8.18894 8.91677 7.96531 9.28195 7.79759 9.71232C7.63532 10.1286 7.52487 10.6044 7.49351 11.301C7.46228 11.9991 7.4541 12.2224 7.4541 14C7.4541 15.7776 7.46201 16 7.49365 16.6982C7.52569 17.395 7.63601 17.8707 7.79773 18.2869C7.96504 18.7174 8.18867 19.0825 8.55261 19.4464C8.91628 19.8105 9.28146 20.0346 9.71167 20.2018C10.1281 20.3637 10.6039 20.474 11.3005 20.5059C11.9987 20.5377 12.2216 20.5455 13.9991 20.5455C15.7768 20.5455 15.9992 20.5377 16.6974 20.5059C17.3942 20.474 17.8703 20.3637 18.2868 20.2018C18.7171 20.0346 19.0817 19.8105 19.4454 19.4464C19.8095 19.0825 20.0331 18.7174 20.2009 18.287C20.3618 17.8707 20.4722 17.3949 20.5049 16.6984C20.5363 16.0002 20.5445 15.7776 20.5445 14C20.5445 12.2224 20.5363 11.9993 20.5049 11.3011C20.4722 10.6043 20.3618 10.1286 20.2009 9.71245C20.0331 9.28195 19.8095 8.91677 19.4454 8.55295C19.0813 8.18886 18.7173 7.96523 18.2864 7.79818C17.8691 7.63632 17.3932 7.526 16.6964 7.49409C15.9983 7.46232 15.776 7.45454 13.9979 7.45454H13.9999ZM13.4127 8.63409C13.587 8.63382 13.7815 8.63409 13.9999 8.63409C15.7475 8.63409 15.9546 8.64036 16.6447 8.67173C17.2829 8.70091 17.6292 8.80754 17.86 8.89713C18.1654 9.01577 18.3832 9.15759 18.6121 9.38668C18.8412 9.61577 18.983 9.83395 19.1019 10.1394C19.1915 10.3699 19.2983 10.7162 19.3273 11.3544C19.3587 12.0444 19.3655 12.2517 19.3655 13.9985C19.3655 15.7453 19.3587 15.9526 19.3273 16.6426C19.2982 17.2808 19.1915 17.6271 19.1019 17.8576C18.9833 18.163 18.8412 18.3805 18.6121 18.6095C18.383 18.8386 18.1655 18.9804 17.86 19.099C17.6295 19.189 17.2829 19.2954 16.6447 19.3246C15.9548 19.356 15.7475 19.3628 13.9999 19.3628C12.2522 19.3628 12.0451 19.356 11.3551 19.3246C10.7169 19.2951 10.3706 19.1885 10.1397 19.0989C9.83426 18.9803 9.61608 18.8385 9.387 18.6094C9.15791 18.3803 9.0161 18.1626 8.89719 17.857C8.80761 17.6266 8.70084 17.2802 8.67179 16.642C8.64043 15.952 8.63416 15.7448 8.63416 13.9969C8.63416 12.249 8.64043 12.0428 8.67179 11.3528C8.70097 10.7146 8.80761 10.3682 8.89719 10.1375C9.01583 9.83204 9.15791 9.61386 9.387 9.38477C9.61608 9.15568 9.83426 9.01386 10.1397 8.89495C10.3704 8.80495 10.7169 8.69859 11.3551 8.66927C11.9589 8.642 12.1929 8.63382 13.4127 8.63245V8.63409ZM17.4937 9.72091C17.0601 9.72091 16.7083 10.0723 16.7083 10.5061C16.7083 10.9397 17.0601 11.2915 17.4937 11.2915C17.9273 11.2915 18.2791 10.9397 18.2791 10.5061C18.2791 10.0725 17.9273 9.72063 17.4937 9.72063V9.72091ZM13.9999 10.6386C12.1436 10.6386 10.6386 12.1437 10.6386 14C10.6386 15.8563 12.1436 17.3607 13.9999 17.3607C15.8562 17.3607 17.3606 15.8563 17.3606 14C17.3606 12.1437 15.856 10.6386 13.9998 10.6386H13.9999ZM13.9999 11.8182C15.2048 11.8182 16.1817 12.795 16.1817 14C16.1817 15.2049 15.2048 16.1818 13.9999 16.1818C12.7949 16.1818 11.8182 15.2049 11.8182 14C11.8182 12.795 12.7949 11.8182 13.9999 11.8182Z" fill="black"/>
</svg>
