<svg width="28" height="28" viewBox="0 0 28 28" fill="none" xmlns="http://www.w3.org/2000/svg">
<rect width="28" height="28" rx="14" fill="#F2F2F2"/>
<path fill-rule="evenodd" clip-rule="evenodd" d="M19.8288 11.0666C19.8339 11.1978 19.8356 11.3289 19.8356 11.46C19.8356 15.4367 17.0382 20.0275 11.9228 20.0275C10.3514 20.0275 8.89028 19.5267 7.65918 18.6741C7.8768 18.6979 8.09781 18.7159 8.32221 18.7159C9.62509 18.7159 10.8251 18.2329 11.777 17.422C10.56 17.4041 9.5324 16.5277 9.17799 15.3353C9.34813 15.3711 9.52334 15.389 9.70252 15.389C9.95519 15.389 10.2005 15.3533 10.4356 15.2818C9.16215 15.0075 8.20295 13.7913 8.20295 12.3306C8.20295 12.3127 8.20295 12.3067 8.20295 12.2948C8.57827 12.5154 9.00784 12.6524 9.46399 12.6703C8.71674 12.1278 8.22554 11.2037 8.22554 10.1604C8.22554 9.61185 8.36233 9.09313 8.60312 8.64598C9.9744 10.4704 12.0245 11.6687 14.3358 11.7939C14.2883 11.5733 14.264 11.3409 14.264 11.1084C14.264 9.44497 15.5093 8.09753 17.0456 8.09753C17.8454 8.09753 18.5678 8.46126 19.0748 9.04554C19.7096 8.91437 20.3042 8.66399 20.8423 8.31819C20.6337 9.02171 20.1934 9.61182 19.618 9.98146C20.181 9.90992 20.718 9.74907 21.2159 9.51059C20.8423 10.1128 20.372 10.6433 19.8288 11.0666Z" fill="black"/>
</svg>
