<svg width="28" height="28" viewBox="0 0 28 28" fill="none" xmlns="http://www.w3.org/2000/svg">
<rect width="28" height="28" rx="14" fill="#F2F2F2"/>
<path fill-rule="evenodd" clip-rule="evenodd" d="M7.25 14C7.25 17.3375 9.6875 20.1125 12.875 20.675L12.9126 20.6449C12.9001 20.6425 12.8875 20.64 12.875 20.6375V15.875H11.1875V14H12.875V12.5C12.875 10.8125 13.9625 9.875 15.5 9.875C15.9875 9.875 16.5125 9.95 17 10.025V11.75H16.1375C15.3125 11.75 15.125 12.1625 15.125 12.6875V14H16.925L16.625 15.875H15.125V20.6375C15.1125 20.64 15.0999 20.6425 15.0874 20.6449L15.125 20.675C18.3125 20.1125 20.75 17.3375 20.75 14C20.75 10.2875 17.7125 7.25 14 7.25C10.2875 7.25 7.25 10.2875 7.25 14Z" fill="black"/>
</svg>
