<svg width="42" height="32" viewBox="0 0 42 32" fill="none" xmlns="http://www.w3.org/2000/svg">
<path d="M8.17266 15.9C8.63932 15.8333 9.27266 15.8 10.0727 15.8C12.606 15.8 14.506 16.5333 15.7727 18C17.106 19.4 17.7727 21.1667 17.7727 23.3C17.7727 25.5667 17.006 27.4667 15.4727 29C14.006 30.5333 11.9727 31.3 9.37266 31.3C6.70599 31.3 4.57266 30.5667 2.97266 29.1C1.37266 27.5667 0.572656 25.3667 0.572656 22.5C0.572656 18.6333 1.73932 14.7333 4.07266 10.8C6.40599 6.8 9.27266 3.46666 12.6727 0.799999L14.6727 2.9C10.3393 7.5 8.17266 11.8333 8.17266 15.9ZM31.5727 15.9C32.0393 15.8333 32.6727 15.8 33.4727 15.8C36.006 15.8 37.906 16.5333 39.1727 18C40.506 19.4 41.1727 21.1667 41.1727 23.3C41.1727 25.5667 40.406 27.4667 38.8727 29C37.406 30.5333 35.3727 31.3 32.7727 31.3C30.106 31.3 27.9727 30.5667 26.3727 29.1C24.7727 27.5667 23.9727 25.3667 23.9727 22.5C23.9727 18.6333 25.1393 14.7333 27.4727 10.8C29.806 6.8 32.6727 3.46666 36.0727 0.799999L38.0727 2.9C33.7393 7.5 31.5727 11.8333 31.5727 15.9Z" fill="#0062E0"/>
</svg>
