<svg width="18" height="19" viewBox="0 0 18 19" fill="none" xmlns="http://www.w3.org/2000/svg">
<path fill-rule="evenodd" clip-rule="evenodd" d="M9 2.1875C4.96125 2.1875 1.6875 5.46125 1.6875 9.5C1.6875 13.5387 4.96125 16.8125 9 16.8125C13.0387 16.8125 16.3125 13.5387 16.3125 9.5C16.3125 5.46125 13.0387 2.1875 9 2.1875ZM9.5625 5C9.5625 4.85082 9.50324 4.70774 9.39775 4.60225C9.29226 4.49676 9.14918 4.4375 9 4.4375C8.85082 4.4375 8.70774 4.49676 8.60225 4.60225C8.49676 4.70774 8.4375 4.85082 8.4375 5V9.5C8.4375 9.8105 8.6895 10.0625 9 10.0625H12.375C12.5242 10.0625 12.6673 10.0032 12.7727 9.89775C12.8782 9.79226 12.9375 9.64918 12.9375 9.5C12.9375 9.35082 12.8782 9.20774 12.7727 9.10225C12.6673 8.99676 12.5242 8.9375 12.375 8.9375H9.5625V5Z" fill="#656565"/>
</svg>
